<!-- Generator: Adobe Illustrator 25.0.1, SVG Export Plug-In . SVG Version: 6.00 Build 0)  -->
<svg version="1.1" id="Layer_1" xmlns="http://www.w3.org/2000/svg" x="0px" y="0px"
	 viewBox="0 0 32 32" stroke="6" stroke-width="6" fill="fff">
<path class="st0" stroke-width="6" d="M20.4,11.2L20.4,11.2 M28.3,3.3H15.9c-0.2,0-0.4,0.2-0.4,0.4V15L4.2,3.5C4.1,3.4,3.9,3.3,3.8,3.3H3.7
	c-0.2,0-0.4,0.2-0.4,0.4c0,0,0,0,0,0v24.5c0,0.2,0.2,0.4,0.4,0.4c0,0,0,0,0,0h7.6c0.2,0,0.4-0.2,0.4-0.4l0,0v-6.8
	c0-2.2,1.6-4.2,3.8-4.6v11.4c0,0.2,0.2,0.4,0.4,0.4l0,0h12.3c0.2,0,0.4-0.2,0.4-0.4c0,0,0,0,0,0V3.7C28.6,3.5,28.5,3.3,28.3,3.3
	C28.3,3.3,28.3,3.3,28.3,3.3z M27.8,27.2L16.5,15.9V4.2h11.4C27.8,4.2,27.8,27.2,27.8,27.2z M4.2,27.8v-23l11.3,11.3
	c-2.6,0.4-4.6,2.7-4.6,5.4v6.3L4.2,27.8z M16.5,27.8V17l10.8,10.8H16.5z"/>
</svg>
